REM DIRINDEX 1\4,1\2\5,1\2\6,1\3\7,1\3\8
REM DIRNAME cjc124,folder01,folder02,folder03,folder04,folder05,folder06,folder07
TITLE ""
FILE "080_Day40_Check3_Sentences.mp3" MP3
  TRACK 01 AUDIO
    TITLE "0:"
    INDEX 01 00:00:00
  TRACK 02 AUDIO
    TITLE "4:cjc124_2610"
    INDEX 01 00:00:25
  TRACK 03 AUDIO
    TITLE "0:"
    INDEX 01 00:02:00
  TRACK 04 AUDIO
    TITLE "7:cjc124_2611"
    INDEX 01 00:02:47
  TRACK 05 AUDIO
    TITLE "0:"
    INDEX 01 00:05:36
  TRACK 06 AUDIO
    TITLE "8:cjc124_2612"
    INDEX 01 00:05:63
  TRACK 07 AUDIO
    TITLE "0:"
    INDEX 01 00:09:06
  TRACK 08 AUDIO
    TITLE "7:cjc124_2613"
    INDEX 01 00:09:42
  TRACK 09 AUDIO
    TITLE "0:"
    INDEX 01 00:12:36
  TRACK 10 AUDIO
    TITLE "8:cjc124_2614"
    INDEX 01 00:12:54
  TRACK 11 AUDIO
    TITLE "0:"
    INDEX 01 00:15:48
  TRACK 12 AUDIO
    TITLE "7:cjc124_2615"
    INDEX 01 00:16:12
  TRACK 13 AUDIO
    TITLE "0:"
    INDEX 01 00:19:07
  TRACK 14 AUDIO
    TITLE "8:cjc124_2616"
    INDEX 01 00:19:20
  TRACK 15 AUDIO
    TITLE "0:"
    INDEX 01 00:22:03
  TRACK 16 AUDIO
    TITLE "7:cjc124_2617"
    INDEX 01 00:22:40
  TRACK 17 AUDIO
    TITLE "0:"
    INDEX 01 00:25:66
  TRACK 18 AUDIO
    TITLE "8:cjc124_2618"
    INDEX 01 00:26:15
  TRACK 19 AUDIO
    TITLE "0:"
    INDEX 01 00:30:40
  TRACK 20 AUDIO
    TITLE "7:cjc124_2619"
    INDEX 01 00:31:02
  TRACK 21 AUDIO
    TITLE "0:"
    INDEX 01 00:34:06
  TRACK 22 AUDIO
    TITLE "8:cjc124_2620"
    INDEX 01 00:34:22
  TRACK 23 AUDIO
    TITLE "0:"
    INDEX 01 00:37:24
  TRACK 24 AUDIO
    TITLE "7:cjc124_2621"
    INDEX 01 00:37:59
  TRACK 25 AUDIO
    TITLE "0:"
    INDEX 01 00:41:36
  TRACK 26 AUDIO
    TITLE "8:cjc124_2622"
    INDEX 01 00:41:51
  TRACK 27 AUDIO
    TITLE "0:"
    INDEX 01 00:44:42
  TRACK 28 AUDIO
    TITLE "7:cjc124_2623"
    INDEX 01 00:45:04
  TRACK 29 AUDIO
    TITLE "0:"
    INDEX 01 00:49:18
  TRACK 30 AUDIO
    TITLE "8:cjc124_2624"
    INDEX 01 00:49:33
  TRACK 31 AUDIO
    TITLE "0:"
    INDEX 01 00:53:00
  TRACK 32 AUDIO
    TITLE "7:cjc124_2625"
    INDEX 01 00:53:37
  TRACK 33 AUDIO
    TITLE "0:"
    INDEX 01 00:56:12
  TRACK 34 AUDIO
    TITLE "8:cjc124_2626"
    INDEX 01 00:56:29
  TRACK 35 AUDIO
    TITLE "0:"
    INDEX 01 00:59:04
  TRACK 36 AUDIO
    TITLE "7:cjc124_2627"
    INDEX 01 00:59:39
  TRACK 37 AUDIO
    TITLE "0:"
    INDEX 01 01:02:34
  TRACK 38 AUDIO
    TITLE "8:cjc124_2628"
    INDEX 01 01:02:50
  TRACK 39 AUDIO
    TITLE "0:"
    INDEX 01 01:05:15
  TRACK 40 AUDIO
    TITLE "7:cjc124_2629"
    INDEX 01 01:05:56
  TRACK 41 AUDIO
    TITLE "0:"
    INDEX 01 01:10:22
  TRACK 42 AUDIO
    TITLE "8:cjc124_2630"
    INDEX 01 01:10:45
  TRACK 43 AUDIO
    TITLE "0:"
    INDEX 01 01:14:66
  TRACK 44 AUDIO
    TITLE "7:cjc124_2631"
    INDEX 01 01:15:27
  TRACK 45 AUDIO
    TITLE "0:"
    INDEX 01 01:19:42
  TRACK 46 AUDIO
    TITLE "8:cjc124_2632"
    INDEX 01 01:19:58
  TRACK 47 AUDIO
    TITLE "0:"
    INDEX 01 01:23:09
  TRACK 48 AUDIO
    TITLE "7:cjc124_2633"
    INDEX 01 01:23:52
  TRACK 49 AUDIO
    TITLE "0:"
    INDEX 01 01:26:70
  TRACK 50 AUDIO
    TITLE "8:cjc124_2634"
    INDEX 01 01:27:08
  TRACK 51 AUDIO
    TITLE "0:"
    INDEX 01 01:29:60
  TRACK 52 AUDIO
    TITLE "7:cjc124_2635"
    INDEX 01 01:30:24
  TRACK 53 AUDIO
    TITLE "0:"
    INDEX 01 01:33:52
  TRACK 54 AUDIO
    TITLE "8:cjc124_2636"
    INDEX 01 01:33:68
  TRACK 55 AUDIO
    TITLE "0:"
    INDEX 01 01:37:73
  TRACK 56 AUDIO
    TITLE "7:cjc124_2637"
    INDEX 01 01:38:36
  TRACK 57 AUDIO
    TITLE "0:"
    INDEX 01 01:41:56
  TRACK 58 AUDIO
    TITLE "8:cjc124_2638"
    INDEX 01 01:41:73
  TRACK 59 AUDIO
    TITLE "0:"
    INDEX 01 01:45:12
  TRACK 60 AUDIO
    TITLE "7:cjc124_2639"
    INDEX 01 01:45:47
  TRACK 61 AUDIO
    TITLE "0:"
    INDEX 01 01:49:24
  TRACK 62 AUDIO
    TITLE "8:cjc124_2640"
    INDEX 01 01:49:51
  TRACK 63 AUDIO
    TITLE "0:"
    INDEX 01 01:52:57
  TRACK 64 AUDIO
    TITLE "7:cjc124_2641"
    INDEX 01 01:53:21
  TRACK 65 AUDIO
    TITLE "0:"
    INDEX 01 01:57:39
  TRACK 66 AUDIO
    TITLE "8:cjc124_2642"
    INDEX 01 01:57:60
  TRACK 67 AUDIO
    TITLE "0:"
    INDEX 01 02:02:07
